<svg xmlns="http://www.w3.org/2000/svg" viewBox="0 0 400 200" fill="none">
  <defs>
    <linearGradient id="bgGrad2" x1="0%" y1="0%" x2="100%" y2="100%">
      <stop offset="0%" stop-color="#1e293b"/>
      <stop offset="100%" stop-color="#334155"/>
    </linearGradient>
  </defs>
  <rect width="400" height="200" fill="url(#bgGrad2)"/>
  <!-- News cards representation -->
  <rect x="30" y="30" width="100" height="80" rx="6" fill="#0f172a" stroke="#475569" stroke-width="1"/>
  <rect x="40" y="40" width="80" height="10" rx="2" fill="#14b8a6"/>
  <rect x="40" y="55" width="70" height="6" rx="2" fill="#64748b"/>
  <rect x="40" y="65" width="60" height="6" rx="2" fill="#64748b"/>
  <rect x="40" y="90" width="40" height="12" rx="4" fill="#0d9488"/>
  
  <rect x="150" y="30" width="100" height="80" rx="6" fill="#0f172a" stroke="#475569" stroke-width="1"/>
  <rect x="160" y="40" width="80" height="10" rx="2" fill="#f59e0b"/>
  <rect x="160" y="55" width="70" height="6" rx="2" fill="#64748b"/>
  <rect x="160" y="65" width="60" height="6" rx="2" fill="#64748b"/>
  <rect x="160" y="90" width="40" height="12" rx="4" fill="#0d9488"/>
  
  <rect x="270" y="30" width="100" height="80" rx="6" fill="#0f172a" stroke="#475569" stroke-width="1"/>
  <rect x="280" y="40" width="80" height="10" rx="2" fill="#14b8a6"/>
  <rect x="280" y="55" width="70" height="6" rx="2" fill="#64748b"/>
  <rect x="280" y="65" width="60" height="6" rx="2" fill="#64748b"/>
  <rect x="280" y="90" width="40" height="12" rx="4" fill="#0d9488"/>
  
  <!-- Search bar -->
  <rect x="100" y="130" width="200" height="30" rx="15" fill="#0f172a" stroke="#14b8a6" stroke-width="2"/>
  <circle cx="125" cy="145" r="6" stroke="#64748b" stroke-width="2" fill="none"/>
  <line x1="129" y1="149" x2="133" y2="153" stroke="#64748b" stroke-width="2"/>
  
  <!-- Title -->
  <text x="200" y="180" text-anchor="middle" font-family="Arial, sans-serif" font-size="14" font-weight="bold" fill="#f1f5f9">News Aggregator - React App</text>
</svg>